<svg width="640" height="420" viewBox="0 0 640 420" fill="none" xmlns="http://www.w3.org/2000/svg">
  <defs>
    <linearGradient id="hero-bg" x1="80" y1="40" x2="560" y2="380" gradientUnits="userSpaceOnUse">
      <stop offset="0" stop-color="#F6FAFF"/>
      <stop offset="1" stop-color="#E2F1FF"/>
    </linearGradient>
    <linearGradient id="hero-card" x1="0" y1="0" x2="1" y2="1">
      <stop offset="0" stop-color="#FFFFFF" stop-opacity="0.95"/>
      <stop offset="1" stop-color="#EFF6FF" stop-opacity="0.9"/>
    </linearGradient>
    <linearGradient id="hero-chart" x1="0" y1="0" x2="0" y2="1">
      <stop offset="0" stop-color="#3B82F6" stop-opacity="0.85"/>
      <stop offset="1" stop-color="#60A5FA" stop-opacity="0.3"/>
    </linearGradient>
    <filter id="card" x="-20" y="-20" width="680" height="460" filterUnits="userSpaceOnUse">
      <feGaussianBlur stdDeviation="18" />
    </filter>
    <filter id="shadow" x="0" y="0" width="1" height="1">
      <feDropShadow dx="0" dy="24" stdDeviation="32" flood-color="#0F172A" flood-opacity="0.08" />
    </filter>
  </defs>
  <rect x="40" y="36" width="560" height="350" rx="40" fill="url(#hero-bg)" />
  <g filter="url(#shadow)">
    <rect x="78" y="76" width="484" height="220" rx="26" fill="url(#hero-card)" />
  </g>
  <rect x="108" y="108" width="180" height="18" rx="9" fill="#CBDCFD" opacity="0.65"/>
  <rect x="108" y="138" width="260" height="12" rx="6" fill="#9EB7F8" opacity="0.6"/>
  <rect x="108" y="158" width="220" height="12" rx="6" fill="#9EB7F8" opacity="0.35"/>
  <rect x="108" y="180" width="180" height="10" rx="5" fill="#9EB7F8" opacity="0.2"/>
  <rect x="330" y="120" width="160" height="110" rx="18" fill="#F1F5FF"/>
  <rect x="348" y="140" width="58" height="12" rx="6" fill="#94C5FF"/>
  <rect x="348" y="160" width="112" height="10" rx="5" fill="#60A5FA" opacity="0.5"/>
  <path d="M344 212C370 170 402 206 420 186C438 166 452 192 484 166" stroke="#2563EB" stroke-width="5" stroke-linecap="round" stroke-linejoin="round" opacity="0.55"/>
  <rect x="108" y="214" width="200" height="82" rx="16" fill="#0EA5E9" opacity="0.09"/>
  <path d="M124 278C150 232 174 272 194 256C214 240 226 268 252 246C278 224 292 250 300 266" stroke="#0EA5E9" stroke-width="5" stroke-linecap="round" stroke-linejoin="round"/>
  <circle cx="181" cy="261" r="6" fill="#0EA5E9"/>
  <circle cx="226" cy="247" r="6" fill="#0EA5E9"/>
  <circle cx="270" cy="232" r="6" fill="#0EA5E9"/>
  <g>
    <rect x="128" y="308" width="384" height="58" rx="18" fill="white" opacity="0.92"/>
    <rect x="148" y="326" width="120" height="12" rx="6" fill="#BFD6FF"/>
    <rect x="284" y="326" width="80" height="12" rx="6" fill="#BFD6FF" opacity="0.6"/>
    <rect x="380" y="326" width="70" height="12" rx="6" fill="#3B82F6" opacity="0.6"/>
    <rect x="148" y="346" width="78" height="8" rx="4" fill="#CBD5F5"/>
    <rect x="238" y="346" width="112" height="8" rx="4" fill="#CBD5F5"/>
    <rect x="362" y="346" width="92" height="8" rx="4" fill="#CBD5F5"/>
  </g>
  <g transform="translate(450 90)">
    <rect x="-6" y="-6" width="120" height="110" rx="20" fill="#EFF4FF" />
    <rect x="10" y="12" width="86" height="12" rx="6" fill="#94C5FF" opacity="0.7"/>
    <rect x="10" y="34" width="66" height="10" rx="5" fill="#60A5FA" opacity="0.4"/>
    <rect x="10" y="52" width="48" height="10" rx="5" fill="#60A5FA" opacity="0.3"/>
    <rect x="10" y="72" width="54" height="22" rx="11" fill="#3B82F6" opacity="0.75"/>
  </g>
  <g opacity="0.3">
    <path d="M88 60H552" stroke="#D8E4FF" stroke-width="1.5" stroke-dasharray="3 8"/>
    <path d="M88 380H552" stroke="#D8E4FF" stroke-width="1.5" stroke-dasharray="3 8"/>
  </g>
</svg>
