<svg width="520" height="320" viewBox="0 0 520 320" fill="none" xmlns="http://www.w3.org/2000/svg">
  <defs>
    <linearGradient id="collab-bg" x1="40" y1="10" x2="470" y2="310" gradientUnits="userSpaceOnUse">
      <stop stop-color="#F5FAFF"/>
      <stop offset="1" stop-color="#E6F2FF"/>
    </linearGradient>
    <linearGradient id="collab-card" x1="0" y1="0" x2="1" y2="1">
      <stop stop-color="#FFFFFF"/>
      <stop offset="1" stop-color="#F2F6FF"/>
    </linearGradient>
    <filter id="collab-shadow">
      <feDropShadow dx="0" dy="16" stdDeviation="26" flood-color="#0F172A" flood-opacity="0.08"/>
    </filter>
  </defs>
  <rect x="24" y="12" width="472" height="296" rx="32" fill="url(#collab-bg)"/>
  <g filter="url(#collab-shadow)">
    <rect x="56" y="56" width="408" height="208" rx="26" fill="url(#collab-card)"/>
  </g>
  <g transform="translate(86 82)">
    <rect width="150" height="20" rx="10" fill="#C9DFFF"/>
    <rect y="32" width="220" height="12" rx="6" fill="#AFC8FF" opacity="0.6"/>
    <rect y="52" width="186" height="12" rx="6" fill="#AFC8FF" opacity="0.35"/>
    <rect y="72" width="164" height="10" rx="5" fill="#AFC8FF" opacity="0.2"/>
  </g>
  <g transform="translate(310 80)">
    <rect width="126" height="96" rx="18" fill="#F1F5FF"/>
    <rect x="18" y="18" width="84" height="10" rx="5" fill="#94C5FF" opacity="0.75"/>
    <rect x="18" y="36" width="92" height="8" rx="4" fill="#94C5FF" opacity="0.45"/>
    <path d="M24 68C44 48 64 84 84 70" stroke="#2563EB" stroke-width="4" stroke-linecap="round" stroke-linejoin="round" opacity="0.55"/>
    <rect x="18" y="74" width="62" height="14" rx="7" fill="#3B82F6" opacity="0.65"/>
  </g>
  <g transform="translate(84 142)">
    <rect width="352" height="96" rx="18" fill="#0EA5E9" opacity="0.08"/>
    <g transform="translate(22 20)">
      <path d="M0 52C28 6 58 52 88 26C118 0 138 28 158 18C178 8 186 32 190 46" stroke="#0EA5E9" stroke-width="5" stroke-linecap="round" stroke-linejoin="round"/>
      <circle cx="53" cy="30" r="6" fill="#0EA5E9"/>
      <circle cx="102" cy="16" r="6" fill="#0EA5E9"/>
      <circle cx="140" cy="34" r="6" fill="#0EA5E9"/>
    </g>
    <g transform="translate(214 20)">
      <rect width="108" height="60" rx="14" fill="#FFFFFF" opacity="0.94"/>
      <rect x="18" y="14" width="56" height="10" rx="5" fill="#BFD6FF" opacity="0.8"/>
      <rect x="18" y="32" width="48" height="8" rx="4" fill="#D6E4FF"/>
      <rect x="18" y="46" width="64" height="8" rx="4" fill="#D6E4FF"/>
    </g>
  </g>
  <g transform="translate(96 258)">
    <rect width="328" height="46" rx="14" fill="white" opacity="0.95"/>
    <rect x="18" y="14" width="120" height="12" rx="6" fill="#BFD6FF" opacity="0.85"/>
    <rect x="152" y="14" width="82" height="12" rx="6" fill="#BFD6FF" opacity="0.5"/>
    <rect x="250" y="14" width="64" height="12" rx="6" fill="#3B82F6" opacity="0.6"/>
  </g>
  <g transform="translate(404 70)">
    <rect x="-10" y="-10" width="96" height="96" rx="20" fill="#EFF4FF"/>
    <rect x="6" y="14" width="64" height="10" rx="5" fill="#94C5FF" opacity="0.75"/>
    <rect x="6" y="34" width="48" height="8" rx="4" fill="#9EB7F8" opacity="0.5"/>
    <rect x="6" y="52" width="34" height="8" rx="4" fill="#9EB7F8" opacity="0.35"/>
    <rect x="6" y="68" width="44" height="12" rx="6" fill="#3B82F6" opacity="0.6"/>
  </g>
</svg>
